<svg width="786" height="442" viewBox="0 0 786 442" fill="none" xmlns="http://www.w3.org/2000/svg">
<g clip-path="url(#clip0)">
<path d="M694.876 6.87412C681.815 25.6556 663.904 39.17 644.661 50.6376C625.336 62.0875 604.535 71.5277 584.711 82.6817C548.797 102.88 510.638 119.416 471.681 135.694C452.176 143.879 432.48 151.92 412.723 160.477C402.867 164.692 392.949 169.115 383.076 173.565C378.149 175.827 373.204 178.17 368.25 180.476L360.869 183.981L353.525 187.631C350.557 189.122 347.461 190.414 344.282 191.535C341.113 192.692 337.871 193.714 334.557 194.754C328 196.816 321.252 198.734 314.825 201.302C310.547 203.089 306.305 204.867 302.117 206.709C297.929 208.55 293.732 210.355 289.609 212.295C285.44 214.208 281.316 216.149 277.183 218.053L270.993 220.945L264.785 223.919C256.519 227.881 248.109 231.727 239.536 235.69C235.222 237.641 230.873 239.6 226.432 241.506C222.001 243.448 217.497 245.409 212.867 247.325C209.175 248.846 205.683 250.548 202.291 252.34C198.918 254.203 195.654 256.193 192.517 258.228C189.343 260.272 186.306 262.396 183.324 264.584C181.828 265.66 180.35 266.808 178.909 267.946C177.468 269.085 175.99 270.233 174.549 271.372C168.829 275.954 163.074 280.545 157.318 285.136C154.399 287.423 151.462 289.637 148.398 291.807C146.866 292.892 145.325 293.941 143.711 295.008C142.134 296.066 140.52 297.133 138.897 298.164C134.741 300.729 130.584 303.294 126.464 305.85L123.335 307.766C122.307 308.414 121.234 309.035 120.216 309.719L114.067 313.679C109.975 316.343 105.882 319.007 101.798 321.707C99.7521 323.039 97.8058 324.461 95.8141 325.856C93.8224 327.251 91.876 328.673 89.9297 330.095C87.9834 331.517 86.037 332.939 84.0999 334.397L81.2258 336.557L79.8114 337.65L78.4063 338.78C74.7044 341.768 71.1025 344.845 67.5821 347.94C65.8265 349.506 64.1071 351.062 62.3876 352.619L61.1094 353.793L59.8765 354.994C59.0488 355.822 58.2571 356.64 57.4655 357.459C54.2627 360.742 51.223 364.061 48.3556 367.452C45.9857 369.174 47.8748 372.195 52.2279 374.163C56.7071 376.021 61.9645 376.255 64.1991 374.605C68.3641 371.923 72.4475 369.222 76.4041 366.478L79.3874 364.444C80.3698 363.769 81.343 363.058 82.3708 362.41C84.3718 361.051 86.3458 359.738 88.3107 358.388C92.2042 355.698 96.0523 352.981 99.8097 350.21L101.206 349.199L102.639 348.178L105.514 346.172C107.407 344.84 109.29 343.473 111.173 342.106C113.057 340.738 114.904 339.38 116.751 338.022C118.598 336.664 120.391 335.243 122.283 333.912C125.987 331.232 129.681 328.516 133.294 325.782L138.709 321.663C140.511 320.278 142.367 318.956 144.178 317.607C147.836 314.901 151.458 312.203 155.035 309.478C175.128 294.559 195.641 280.379 217.11 267.379C238.643 254.479 261.087 242.732 284.826 232.733C290.287 230.605 293.399 225.458 298.306 222.816C300.48 221.683 302.699 220.576 304.892 219.515C307.084 218.453 309.313 217.383 311.496 216.285C313.689 215.224 315.917 214.153 318.119 213.128C320.312 212.067 322.55 211.032 324.752 210.007C329.164 207.993 333.613 205.97 338.026 203.955C340.237 202.966 342.439 201.941 344.65 200.952L351.283 197.985C355.705 196.007 360.091 194.038 364.459 191.997C368.845 190.028 373.222 188.023 377.544 185.955C386.26 181.8 394.823 177.646 403.329 173.122C433.828 157.043 465.218 143.393 496.156 129.781C527.103 116.206 557.716 102.678 586.814 86.8416C606.902 75.9667 627.583 66.0566 646.66 53.9385C665.664 41.8388 683.173 27.5032 696.051 8.30647C696.157 7.97111 696.028 7.46513 695.637 7.14148C695.463 6.7624 695.101 6.70099 694.876 6.87412Z" fill="#F7D78E"/>
<path d="M706.146 26.4028C692.534 45.4406 674.154 59.2289 654.523 70.8343C634.819 82.4582 613.774 91.9992 593.743 103.245C557.559 123.589 519.435 140.116 480.821 156.23C461.524 164.323 442.108 172.254 422.685 180.61C412.964 184.751 403.289 189.074 393.66 193.424C388.832 195.621 384.023 197.891 379.213 200.16L372.004 203.583L364.858 207.105C361.998 208.568 358.965 209.806 355.895 210.899C352.789 212.001 349.655 212.995 346.44 213.972C340.055 215.951 333.515 217.778 327.25 220.227C323.107 221.941 319 223.646 314.911 225.424C310.859 227.192 306.797 228.924 302.773 230.8C298.775 232.631 294.787 234.498 290.789 236.329L284.797 239.094L278.824 241.931C270.82 245.711 262.752 249.391 254.486 253.2C250.344 255.068 246.156 256.909 241.887 258.732C237.627 260.592 233.286 262.434 228.817 264.231C225.297 265.671 221.895 267.272 218.639 268.991C215.391 270.746 212.299 272.653 209.297 274.615C206.295 276.576 203.393 278.627 200.537 280.706C199.104 281.727 197.726 282.811 196.311 283.904C194.933 284.988 193.555 286.072 192.186 287.193C186.764 291.583 181.332 295.937 175.874 300.337C173.117 302.505 170.316 304.646 167.414 306.698C165.945 307.728 164.466 308.722 162.988 309.716C161.474 310.72 159.959 311.723 158.4 312.7C154.478 315.127 150.546 317.519 146.588 319.956C144.622 321.152 142.621 322.357 140.664 323.589L134.84 327.312C130.937 329.812 127.079 332.339 123.22 334.866C121.273 336.134 119.417 337.456 117.56 338.778C115.704 340.1 113.847 341.422 111.991 342.744C110.135 344.066 108.324 345.415 106.476 346.773L103.764 348.814L102.413 349.853L101.107 350.918C97.6305 353.733 94.2084 356.61 90.9132 359.532C89.2476 360.998 87.6181 362.455 86.0339 363.938L84.8549 365.048L83.7212 366.185C82.9564 366.958 82.2278 367.722 81.4631 368.496C78.4763 371.57 75.6618 374.716 73.0104 377.897C70.8027 379.501 72.7817 382.422 77.1348 384.389C81.614 386.247 86.7722 386.545 88.89 385.041C92.839 382.568 96.6972 380.041 100.438 377.505L103.223 375.599C104.142 374.979 105.052 374.323 106.017 373.729C107.892 372.48 109.767 371.23 111.606 369.99C115.31 367.463 118.897 364.929 122.438 362.367L123.772 361.41L125.115 360.489L127.828 358.602C129.621 357.334 131.378 356.076 133.136 354.818C134.893 353.56 136.641 352.266 138.353 350.981C140.101 349.687 141.767 348.375 143.57 347.144C147.084 344.628 150.544 342.048 153.968 339.478L159.058 335.597C160.77 334.312 162.527 333.054 164.239 331.769C167.672 329.235 171.096 326.665 174.483 324.104C193.468 309.969 212.926 296.482 233.431 284.076C253.999 271.769 275.568 260.515 298.468 251C303.768 248.99 306.698 243.89 311.443 241.367C313.545 240.252 315.665 239.209 317.794 238.202C319.915 237.159 322.08 236.143 324.201 235.101C326.33 234.094 328.487 233.042 330.616 232.035C332.746 231.028 334.875 230.022 337.05 229.042C341.364 227.091 345.641 225.15 349.919 223.209C352.058 222.239 354.197 221.268 356.335 220.297L362.77 217.458C367.057 215.553 371.334 213.612 375.567 211.644C379.844 209.703 384.086 207.771 388.345 205.757C396.817 201.704 405.218 197.668 413.544 193.19C443.393 177.431 474.368 163.964 505.098 150.445C535.838 136.961 566.477 123.387 595.829 107.486C616.088 96.5289 637.049 86.5089 656.505 74.2167C675.924 61.9339 693.911 47.3605 707.293 27.8805C707.4 27.5452 707.271 27.0392 706.916 26.7063C706.769 26.2818 706.407 26.2204 706.146 26.4028Z" fill="#F7D78E"/>
<path d="M717.452 45.9221C703.299 65.2524 684.432 79.2424 664.395 91.0671C644.321 102.901 622.996 112.552 602.83 123.871C584.584 134.121 565.926 143.359 547.084 152.029C528.241 160.699 509.143 168.818 490.043 176.783C470.953 184.784 451.772 192.578 432.737 200.796C423.188 204.856 413.757 209.077 404.29 213.308C399.561 215.442 394.896 217.675 390.222 219.871L383.22 223.202L376.282 226.633C373.485 228.041 370.56 229.251 367.553 230.29C364.556 231.364 361.449 232.313 358.378 233.252C352.164 235.15 345.796 236.894 339.738 239.252C335.731 240.893 331.732 242.57 327.806 244.229C323.853 245.933 319.926 247.592 316.073 249.386C312.211 251.144 308.348 252.902 304.495 254.696L298.702 257.333L292.927 260.042C285.229 263.666 277.423 267.164 269.527 270.763C265.556 272.548 261.494 274.28 257.388 275.985C253.29 277.726 249.12 279.486 244.859 281.192C241.474 282.558 238.207 284.087 235.113 285.687C232.037 287.359 229.071 289.157 226.204 291.046C223.338 292.934 220.562 294.876 217.877 296.872C216.516 297.875 215.201 298.904 213.886 299.934C212.571 300.963 211.301 302.019 209.986 303.049C204.852 307.211 199.727 311.41 194.602 315.609C192.008 317.658 189.368 319.681 186.638 321.65C185.268 322.617 183.862 323.592 182.438 324.496C181.022 325.435 179.571 326.384 178.11 327.297C174.377 329.561 170.645 331.825 166.912 334.089C165.045 335.221 163.133 336.326 161.312 337.485L155.776 340.98C152.098 343.307 148.429 345.67 144.805 348.06C142.948 349.228 141.227 350.477 139.46 351.699C137.694 352.921 135.937 354.179 134.215 355.428C132.458 356.686 130.737 357.934 129.025 359.219L126.475 361.142L125.223 362.117L124.007 363.083C120.756 365.724 117.55 368.392 114.48 371.141C112.94 372.498 111.41 373.89 109.916 375.274L108.8 376.329L107.729 377.412C107.027 378.13 106.325 378.849 105.66 379.558C102.934 382.45 100.3 385.396 97.8282 388.377C95.7466 389.872 97.8155 392.693 102.205 394.651C106.684 396.509 111.752 396.907 113.744 395.512C117.468 393.212 121.119 390.93 124.635 388.568L127.267 386.816C128.123 386.251 129.006 385.64 129.899 385.065C131.684 383.915 133.433 382.775 135.172 381.599C138.661 379.282 142.022 376.92 145.348 374.568L146.582 373.675L147.862 372.808L150.376 371.048C152.044 369.89 153.738 368.687 155.36 367.502C157.018 366.308 158.64 365.123 160.262 363.938C161.884 362.753 163.46 361.541 165.119 360.347C168.399 357.968 171.642 355.598 174.877 353.192C176.49 351.971 178.076 350.795 179.688 349.574C181.265 348.362 182.932 347.204 184.545 345.983C187.78 343.577 190.978 341.18 194.167 338.747C212.016 325.441 230.42 312.648 249.96 300.835C269.564 289.121 290.231 278.406 312.319 269.33C317.411 267.411 320.179 262.429 324.752 259.989C326.791 258.928 328.848 257.94 330.896 256.916C332.954 255.927 335.011 254.939 337.068 253.951C339.126 252.963 341.183 251.975 343.249 251.022C345.307 250.034 347.373 249.082 349.476 248.121C353.654 246.244 357.796 244.376 361.975 242.498C364.05 241.582 366.117 240.63 368.229 239.705L374.492 236.948C378.644 235.116 382.822 233.239 386.955 231.335C391.097 229.467 395.266 227.553 399.39 225.613C407.592 221.705 415.884 217.698 423.976 213.357C453.166 197.882 483.726 184.598 514.258 171.206C544.79 157.814 575.43 144.24 605.061 128.229C625.491 117.189 646.723 107.023 666.567 94.5933C686.366 82.1364 704.831 67.3252 718.8 47.5798C718.906 47.2444 718.777 46.7384 718.422 46.4055C718.075 45.8012 717.677 45.749 717.452 45.9221Z" fill="#F7D78E"/>
<path d="M728.722 65.4508C714.019 85.0373 694.673 99.2651 674.257 111.264C653.804 123.272 632.236 133.024 611.862 144.434C593.472 154.721 574.786 164.005 555.908 172.684C537.102 181.344 518.103 189.399 499.211 197.273C480.328 205.183 461.39 212.875 442.725 220.884C433.347 224.861 424.115 228.955 414.865 233.13C410.281 235.227 405.706 237.36 401.167 239.483L394.336 242.732L387.605 246.071C384.881 247.46 382.055 248.607 379.121 249.627C376.186 250.647 373.178 251.532 370.18 252.452C364.165 254.222 357.968 255.884 352.082 258.159C348.209 259.727 344.346 261.331 340.519 262.926C336.701 264.557 332.91 266.143 329.192 267.864C325.465 269.549 321.738 271.234 318.011 272.919L312.425 275.464L306.884 278.036C299.484 281.469 291.949 284.821 284.386 288.218C280.577 289.885 276.697 291.571 272.716 293.167C268.789 294.826 264.818 296.457 260.683 298.054C257.433 299.347 254.329 300.757 251.334 302.293C248.393 303.893 245.589 305.572 242.848 307.351C240.108 309.131 237.504 310.99 234.945 312.877C233.647 313.825 232.431 314.791 231.188 315.802C229.945 316.813 228.729 317.778 227.522 318.78C222.686 322.751 217.886 326.713 213.058 330.72C210.636 332.687 208.158 334.591 205.544 336.415C204.238 337.327 202.931 338.239 201.579 339.124C200.226 340.008 198.91 340.884 197.513 341.742C194.014 343.869 190.47 345.969 186.927 348.069C185.159 349.137 183.346 350.179 181.625 351.274L176.413 354.532C172.969 356.722 169.48 358.885 166.045 361.111C164.287 362.215 162.692 363.355 161.025 364.513C159.358 365.671 157.726 366.82 156.095 367.968C154.464 369.117 152.842 370.302 151.22 371.487L148.823 373.255L147.625 374.139L146.472 375.05C143.446 377.519 140.465 380.014 137.611 382.554C136.161 383.81 134.757 385.093 133.398 386.404L132.372 387.359L131.391 388.342C130.752 389.005 130.114 389.669 129.475 390.333C126.966 393.016 124.547 395.752 122.301 398.56C120.336 399.91 122.54 402.658 126.92 404.58C131.399 406.438 136.368 406.9 138.243 405.65C141.751 403.559 145.177 401.451 148.477 399.298L150.956 397.701C151.776 397.145 152.569 396.634 153.435 396.104C155.094 395.064 156.744 393.987 158.393 392.911C161.656 390.767 164.802 388.615 167.902 386.436L169.074 385.597L170.255 384.794L172.616 383.189C174.184 382.095 175.752 381.001 177.284 379.916C178.816 378.831 180.339 377.71 181.862 376.589C183.385 375.468 184.835 374.365 186.403 373.271C189.494 371.056 192.513 368.859 195.513 366.59C197 365.478 198.513 364.321 200 363.209C201.487 362.097 203.046 360.967 204.568 359.846C207.614 357.604 210.614 355.334 213.578 353.075C230.319 340.553 247.668 328.453 266.207 317.242C284.845 306.122 304.647 295.936 325.923 287.299C330.844 285.463 333.414 280.608 337.825 278.286C339.765 277.29 341.75 276.32 343.735 275.35C345.72 274.38 347.714 273.447 349.699 272.477C351.693 271.543 353.678 270.574 355.672 269.64C357.667 268.707 359.661 267.773 361.664 266.875C365.707 265.071 369.714 263.276 373.748 261.436C375.752 260.539 377.755 259.641 379.795 258.734L385.887 256.06C389.93 254.256 393.973 252.451 397.97 250.62C402.014 248.816 406.047 246.976 410.063 245.063C418.021 241.257 426.151 237.368 434.062 233.073C462.603 217.918 492.747 204.817 523.108 191.508C553.468 178.198 584.108 164.624 613.937 148.485C634.576 137.354 656.015 127.096 676.228 114.456C696.406 101.825 715.349 86.7765 729.86 66.7386C730.002 66.394 729.873 65.888 729.482 65.5643C729.381 65.3206 728.983 65.2684 728.722 65.4508Z" fill="#F7D78E"/>
<path d="M740.019 84.9341C724.739 104.822 704.942 119.243 684.155 131.451C663.324 143.633 641.485 153.531 620.966 164.979C602.404 175.348 583.683 184.641 564.805 193.32C560.121 195.48 555.429 197.605 550.691 199.702L543.633 202.816L536.602 205.885C531.927 207.928 527.198 209.908 522.513 211.914C517.82 213.885 513.162 215.846 508.469 217.817C489.758 225.644 471.1 233.227 452.85 241.052C443.643 244.947 434.655 248.94 425.603 252.988C421.118 255.02 416.723 257.107 412.284 259.167L405.661 262.324L399.138 265.571C396.512 266.897 393.75 267.988 390.924 268.981C388.097 269.973 385.153 270.803 382.253 271.66C376.409 273.347 370.42 274.918 364.732 277.065C360.995 278.56 357.267 280.091 353.585 281.649C349.902 283.207 346.21 284.729 342.664 286.367C339.072 287.979 335.48 289.591 331.925 291.193L326.537 293.611L321.24 296.082C314.147 299.36 306.918 302.556 299.653 305.762C295.98 307.356 292.297 308.914 288.488 310.427C284.724 311.968 280.923 313.517 276.987 314.986C273.863 316.17 270.894 317.507 268.044 319.006C265.265 320.487 262.56 322.103 259.991 323.799C257.422 325.496 254.944 327.247 252.52 329.06C251.285 329.954 250.142 330.901 248.998 331.848C247.854 332.795 246.71 333.742 245.567 334.689C241.064 338.459 236.525 342.239 231.986 346.018C229.725 347.867 227.374 349.662 224.968 351.394C223.76 352.242 222.516 353.099 221.227 353.929C219.938 354.76 218.721 355.571 217.387 356.375C214.077 358.338 210.768 360.301 207.422 362.273C205.754 363.278 204.031 364.219 202.445 365.241L197.558 368.262C194.303 370.288 191.048 372.314 187.839 374.367C186.207 375.362 184.711 376.438 183.143 377.532C181.601 378.581 180.069 379.666 178.537 380.751C177.005 381.836 175.509 382.911 173.977 383.996L171.743 385.646L170.644 386.466L169.59 387.313C166.779 389.572 164.024 391.894 161.359 394.27C160.045 395.453 158.73 396.637 157.461 397.847L156.498 398.748L155.617 399.667C155.041 400.276 154.429 400.894 153.863 401.54C151.569 404.013 149.376 406.577 147.345 409.175C145.507 410.416 147.801 413.063 152.181 414.985C156.651 416.807 161.539 417.405 163.288 416.265C166.58 414.383 169.781 412.448 172.874 410.54L175.154 409.071C175.912 408.57 176.678 408.104 177.435 407.602C178.995 406.626 180.519 405.658 182.042 404.691C185.08 402.721 188.01 400.778 190.885 398.772L191.966 398.033L193.084 397.285L195.283 395.798C196.761 394.804 198.194 393.783 199.636 392.798C201.069 391.777 202.502 390.756 203.899 389.744C205.332 388.723 206.647 387.694 208.116 386.663C210.982 384.621 213.802 382.552 216.586 380.492C217.974 379.444 219.361 378.396 220.749 377.348C222.136 376.3 223.605 375.27 224.993 374.222C227.804 372.117 230.615 370.012 233.381 367.88C248.976 356.151 265.271 344.745 282.854 334.164C300.528 323.636 319.419 313.953 339.893 305.79C344.651 304.073 347.049 299.301 351.253 297.071C353.12 296.092 355.042 295.177 356.955 294.226C358.877 293.311 360.799 292.396 362.721 291.481C364.643 290.566 366.574 289.687 368.496 288.771C370.418 287.856 372.349 286.977 374.28 286.098C378.188 284.367 382.087 282.6 385.958 280.878C387.89 279.999 389.821 279.12 391.797 278.268L397.682 275.685C401.59 273.954 405.497 272.223 409.387 270.42C413.321 268.643 417.256 266.867 421.136 265.027C428.86 261.358 436.809 257.515 444.521 253.348C472.449 238.504 502.178 225.586 532.295 212.378C562.448 199.159 593.124 185.577 623.197 169.337C644.007 158.123 665.726 147.755 686.318 134.941C706.875 122.137 726.297 106.85 741.357 86.5556C741.5 86.211 741.371 85.705 740.98 85.3813C740.688 84.84 740.289 84.7879 740.019 84.9341Z" fill="#F7D78E"/>
</g>
<defs>
<clipPath id="clip0">
<rect width="742.633" height="264.948" fill="white" transform="translate(0 184.551) rotate(-14.3459)"/>
</clipPath>
</defs>
</svg>
